<?xml version="1.0" encoding="iso-8859-1"?>
<!-- Generator: Adobe Illustrator 19.0.0, SVG Export Plug-In . SVG Version: 6.00 Build 0)  -->
<svg version="1.1" id="Layer_1" xmlns="http://www.w3.org/2000/svg" xmlns:xlink="http://www.w3.org/1999/xlink" x="0px" y="0px"
	 viewBox="0 0 512.001 512.001" style="enable-background:new 0 0 512.001 512.001;" xml:space="preserve">
<path style="fill:#C7C8C9;" d="M426.458,341.74h-18.542H355.92h-4.11c-37.706,0-68.382-29.398-68.382-65.532
	c0-36.132,30.676-65.526,68.382-65.526h66.401c4.74,0,8.581-3.841,8.581-8.581s-3.841-8.581-8.581-8.581h-66.401
	c-47.169,0-85.543,37.094-85.543,82.687c0,45.597,38.374,82.693,85.543,82.693h4.11h51.994h18.542
	c37.706,0,68.382,29.395,68.382,65.526c0,36.134-30.676,65.532-68.382,65.532H117.787c-4.74,0-8.581,3.841-8.581,8.581
	c0,4.74,3.841,8.581,8.581,8.581h308.671c47.169,0,85.543-37.096,85.543-82.693C512.001,378.834,473.625,341.74,426.458,341.74z"/>
<path style="fill:#FF5347;" d="M234.435,290.311c-0.002-0.37-0.009-0.739-0.016-1.11c-0.011-0.541-0.024-1.08-0.042-1.621
	c-0.011-0.366-0.024-0.732-0.038-1.098c-0.024-0.548-0.051-1.096-0.082-1.645c-0.021-0.356-0.038-0.71-0.061-1.064
	c-0.038-0.571-0.082-1.141-0.127-1.71c-0.024-0.329-0.049-0.659-0.078-0.987c-0.056-0.644-0.12-1.286-0.188-1.928
	c-0.026-0.253-0.049-0.503-0.078-0.755c-0.199-1.796-0.438-3.587-0.72-5.37c-0.042-0.263-0.089-0.527-0.132-0.792
	c-0.103-0.622-0.206-1.244-0.319-1.864c-0.058-0.327-0.122-0.653-0.185-0.98c-0.105-0.556-0.213-1.114-0.326-1.668
	c-0.072-0.348-0.145-0.694-0.219-1.042c-0.117-0.535-0.232-1.071-0.356-1.605c-0.08-0.352-0.164-0.702-0.246-1.055
	c-0.127-0.529-0.257-1.056-0.389-1.585c-0.089-0.35-0.178-0.699-0.27-1.048c-0.138-0.533-0.284-1.065-0.431-1.597
	c-0.094-0.335-0.188-0.674-0.284-1.009c-0.159-0.556-0.326-1.11-0.494-1.662c-0.092-0.308-0.183-0.616-0.279-0.922
	c-0.194-0.626-0.398-1.249-0.603-1.871c-0.076-0.231-0.15-0.462-0.225-0.692c-0.291-0.86-0.59-1.717-0.898-2.57
	c-0.002-0.003-0.002-0.006-0.005-0.008c-0.304-0.842-0.621-1.681-0.945-2.514c-0.098-0.254-0.204-0.505-0.304-0.757
	c-0.23-0.583-0.462-1.167-0.704-1.745c-0.127-0.307-0.26-0.61-0.389-0.916c-0.223-0.524-0.45-1.049-0.68-1.571
	c-0.143-0.321-0.291-0.644-0.436-0.966c-0.228-0.501-0.458-1.003-0.692-1.502c-0.154-0.326-0.309-0.653-0.467-0.978
	c-0.237-0.493-0.478-0.983-0.722-1.471c-0.161-0.325-0.324-0.649-0.49-0.972c-0.251-0.492-0.505-0.979-0.764-1.467
	c-0.166-0.313-0.328-0.628-0.499-0.939c-0.275-0.508-0.554-1.015-0.837-1.518c-0.159-0.285-0.317-0.571-0.478-0.856
	c-0.324-0.567-0.657-1.133-0.99-1.695c-0.127-0.215-0.253-0.431-0.38-0.645c-0.469-0.783-0.95-1.558-1.439-2.332
	c-0.018-0.027-0.035-0.055-0.054-0.084c-0.467-0.737-0.945-1.468-1.428-2.195c-0.157-0.233-0.319-0.464-0.476-0.698
	c-0.351-0.518-0.704-1.037-1.064-1.55c-0.194-0.277-0.396-0.553-0.593-0.831c-0.333-0.466-0.666-0.93-1.006-1.392
	c-0.215-0.291-0.431-0.579-0.648-0.869c-0.333-0.443-0.668-0.883-1.008-1.323c-0.225-0.293-0.453-0.585-0.684-0.875
	c-0.34-0.432-0.684-0.863-1.032-1.291c-0.232-0.287-0.467-0.575-0.704-0.86c-0.356-0.43-0.717-0.857-1.079-1.283
	c-0.235-0.275-0.469-0.551-0.706-0.826c-0.384-0.442-0.773-0.88-1.165-1.316c-0.223-0.248-0.443-0.5-0.668-0.746
	c-0.45-0.494-0.907-0.983-1.367-1.471c-0.172-0.183-0.342-0.368-0.516-0.551c-0.644-0.673-1.294-1.34-1.953-1.998
	c-0.04-0.04-0.08-0.078-0.12-0.117c-0.617-0.613-1.24-1.22-1.871-1.821c-0.213-0.204-0.431-0.403-0.645-0.604
	c-0.464-0.434-0.93-0.868-1.401-1.296c-0.26-0.237-0.525-0.469-0.787-0.702c-0.436-0.388-0.872-0.775-1.311-1.156
	c-0.284-0.245-0.572-0.489-0.858-0.731c-0.255-0.216-0.507-0.437-0.764-0.651l-0.092-0.065c-4.822-4.012-10.024-7.696-15.604-10.985
	c-4.339-2.557-8.775-4.804-13.281-6.747c-13.523-5.83-27.685-8.924-41.796-9.471c-0.265-0.006-0.532-0.023-0.797-0.029
	c-1.144-0.035-2.286-0.033-3.428-0.035c0,0,0,0-0.002,0c-1.142,0.002-2.284,0-3.43,0.035c-0.265,0.007-0.53,0.023-0.797,0.029
	c-14.109,0.548-28.273,3.642-41.794,9.471c-4.508,1.943-8.942,4.19-13.281,6.747c-5.58,3.289-10.782,6.973-15.606,10.985
	l-0.089,0.065c-0.26,0.215-0.509,0.435-0.764,0.651c-0.288,0.243-0.574,0.486-0.858,0.731c-0.443,0.381-0.879,0.768-1.311,1.156
	c-0.263,0.233-0.527,0.466-0.787,0.702c-0.474,0.428-0.938,0.863-1.401,1.296c-0.215,0.202-0.434,0.4-0.645,0.604
	c-0.633,0.601-1.256,1.208-1.871,1.821c-0.04,0.039-0.08,0.077-0.121,0.117c-0.661,0.658-1.311,1.325-1.953,1.998
	c-0.174,0.183-0.344,0.368-0.516,0.551c-0.46,0.489-0.919,0.978-1.367,1.471c-0.225,0.247-0.447,0.498-0.668,0.746
	c-0.391,0.437-0.783,0.875-1.166,1.316c-0.237,0.275-0.469,0.55-0.704,0.826c-0.364,0.426-0.724,0.852-1.079,1.283
	c-0.237,0.285-0.471,0.573-0.704,0.86c-0.349,0.428-0.692,0.858-1.032,1.291c-0.23,0.291-0.458,0.582-0.684,0.875
	c-0.34,0.439-0.675,0.881-1.008,1.323c-0.217,0.291-0.434,0.579-0.648,0.869c-0.34,0.462-0.675,0.927-1.006,1.392
	c-0.199,0.277-0.398,0.553-0.593,0.831c-0.359,0.514-0.713,1.032-1.064,1.55c-0.159,0.233-0.319,0.465-0.476,0.698
	c-0.485,0.728-0.961,1.459-1.428,2.195c-0.018,0.029-0.038,0.056-0.056,0.084c-0.487,0.773-0.968,1.549-1.437,2.332
	c-0.129,0.215-0.253,0.43-0.38,0.645c-0.333,0.563-0.666,1.128-0.99,1.695c-0.164,0.285-0.319,0.571-0.478,0.856
	c-0.284,0.503-0.563,1.01-0.837,1.518c-0.169,0.311-0.333,0.626-0.501,0.939c-0.257,0.487-0.511,0.976-0.762,1.467
	c-0.165,0.323-0.328,0.646-0.49,0.972c-0.246,0.489-0.485,0.978-0.724,1.471c-0.157,0.325-0.312,0.652-0.464,0.978
	c-0.235,0.499-0.467,1.001-0.693,1.502c-0.148,0.321-0.293,0.644-0.436,0.966c-0.23,0.522-0.455,1.047-0.68,1.571
	c-0.129,0.307-0.262,0.609-0.389,0.916c-0.241,0.579-0.474,1.162-0.706,1.745c-0.101,0.253-0.204,0.503-0.302,0.757
	c-0.324,0.834-0.642,1.671-0.947,2.514c0,0,0,0.005-0.002,0.008c-0.31,0.852-0.608,1.709-0.898,2.57
	c-0.078,0.23-0.15,0.461-0.225,0.692c-0.206,0.621-0.408,1.245-0.605,1.871c-0.094,0.307-0.185,0.614-0.277,0.922
	c-0.169,0.553-0.335,1.106-0.494,1.662c-0.098,0.335-0.19,0.674-0.284,1.009c-0.148,0.532-0.293,1.064-0.431,1.597
	c-0.094,0.349-0.181,0.698-0.27,1.048c-0.134,0.529-0.263,1.056-0.389,1.585c-0.085,0.352-0.166,0.702-0.248,1.055
	c-0.12,0.534-0.239,1.071-0.354,1.605c-0.073,0.348-0.15,0.694-0.221,1.042c-0.112,0.554-0.219,1.112-0.326,1.668
	c-0.061,0.326-0.125,0.652-0.185,0.98c-0.112,0.62-0.215,1.241-0.317,1.864c-0.045,0.264-0.092,0.529-0.132,0.792
	c-0.281,1.784-0.523,3.574-0.722,5.37c-0.027,0.252-0.049,0.502-0.076,0.755c-0.067,0.642-0.132,1.284-0.188,1.928
	c-0.029,0.328-0.054,0.658-0.08,0.987c-0.045,0.57-0.087,1.139-0.125,1.71c-0.023,0.354-0.042,0.708-0.061,1.064
	c-0.031,0.548-0.061,1.097-0.082,1.645c-0.016,0.366-0.026,0.732-0.04,1.098c-0.016,0.541-0.031,1.08-0.04,1.621
	c-0.007,0.37-0.014,0.739-0.016,1.11c-0.007,0.545-0.007,1.089-0.002,1.634c0.002,0.362,0.002,0.724,0.007,1.086
	c0.009,0.567,0.023,1.134,0.04,1.701c0.009,0.339,0.016,0.676,0.029,1.014c0.022,0.628,0.056,1.257,0.089,1.884
	c0.014,0.277,0.024,0.553,0.042,0.831c0.11,1.813,0.261,3.629,0.456,5.441c0.029,0.27,0.063,0.542,0.094,0.812
	c0.073,0.633,0.148,1.266,0.23,1.899c0.045,0.337,0.094,0.674,0.141,1.011c0.08,0.566,0.161,1.132,0.248,1.698
	c0.056,0.364,0.117,0.727,0.176,1.09c0.089,0.541,0.181,1.08,0.277,1.62c0.067,0.372,0.136,0.745,0.206,1.118
	c0.103,0.533,0.208,1.067,0.315,1.599c0.076,0.372,0.154,0.745,0.232,1.117c0.114,0.538,0.235,1.073,0.358,1.609
	c0.082,0.362,0.166,0.727,0.253,1.089c0.132,0.556,0.272,1.112,0.413,1.666c0.087,0.34,0.172,0.681,0.26,1.019
	c0.164,0.611,0.333,1.22,0.502,1.828c0.08,0.283,0.157,0.565,0.237,0.848c0.516,1.78,1.074,3.552,1.681,5.318
	c0.094,0.276,0.194,0.549,0.291,0.825c0.213,0.605,0.424,1.209,0.648,1.811c0.125,0.338,0.255,0.674,0.382,1.011
	c0.206,0.539,0.411,1.077,0.624,1.613c0.143,0.359,0.291,0.718,0.436,1.077c0.211,0.514,0.422,1.029,0.642,1.542
	c0.154,0.364,0.313,0.729,0.471,1.093c0.221,0.507,0.445,1.013,0.675,1.517c0.165,0.363,0.331,0.728,0.501,1.09
	c0.237,0.505,0.476,1.01,0.72,1.514c0.172,0.356,0.344,0.71,0.518,1.065c0.26,0.523,0.525,1.042,0.793,1.562
	c0.169,0.331,0.337,0.662,0.509,0.992c0.302,0.571,0.612,1.138,0.923,1.706c0.15,0.277,0.297,0.554,0.45,0.831
	c0.469,0.839,0.947,1.678,1.439,2.51l88.006,149.301c3.092,3.978,7.497,7.751,12.904,7.366c5.41,0.387,9.814-3.388,12.904-7.366
	l46.837-79.457l14.58-24.736L218.138,351c0.492-0.833,0.97-1.671,1.437-2.51c0.154-0.276,0.302-0.553,0.452-0.831
	c0.31-0.567,0.621-1.135,0.921-1.706c0.174-0.329,0.342-0.661,0.511-0.992c0.265-0.519,0.532-1.039,0.791-1.562
	c0.176-0.355,0.349-0.709,0.518-1.065c0.244-0.503,0.485-1.009,0.722-1.514c0.167-0.363,0.335-0.728,0.501-1.09
	c0.228-0.505,0.453-1.01,0.675-1.517c0.159-0.364,0.317-0.729,0.471-1.093c0.216-0.513,0.431-1.027,0.642-1.542
	c0.145-0.358,0.293-0.717,0.436-1.077c0.213-0.537,0.418-1.074,0.621-1.613c0.129-0.338,0.26-0.674,0.384-1.011
	c0.221-0.602,0.436-1.206,0.648-1.811c0.096-0.275,0.197-0.548,0.291-0.825c0.603-1.765,1.165-3.539,1.678-5.318
	c0.082-0.283,0.159-0.565,0.237-0.848c0.172-0.608,0.342-1.216,0.502-1.828c0.089-0.339,0.174-0.68,0.26-1.019
	c0.143-0.554,0.281-1.11,0.415-1.666c0.087-0.363,0.167-0.728,0.253-1.089c0.12-0.537,0.241-1.071,0.356-1.609
	c0.08-0.371,0.159-0.744,0.235-1.117c0.108-0.533,0.213-1.067,0.312-1.599c0.072-0.372,0.141-0.745,0.208-1.118
	c0.096-0.54,0.188-1.079,0.277-1.62c0.061-0.364,0.12-0.726,0.176-1.09c0.087-0.566,0.167-1.131,0.248-1.698
	c0.047-0.338,0.096-0.674,0.141-1.011c0.082-0.634,0.157-1.266,0.228-1.899c0.031-0.27,0.068-0.542,0.096-0.812
	c0.194-1.812,0.347-3.628,0.455-5.441c0.018-0.277,0.026-0.553,0.042-0.831c0.033-0.628,0.065-1.257,0.089-1.884
	c0.014-0.337,0.021-0.675,0.029-1.014c0.016-0.567,0.031-1.134,0.038-1.701c0.007-0.362,0.007-0.724,0.009-1.086
	C234.44,291.4,234.44,290.855,234.435,290.311z M118.931,347.966c-31.886,0-57.735-25.849-57.735-57.735
	s25.849-57.735,57.735-57.735s57.735,25.849,57.735,57.735S150.818,347.966,118.931,347.966z"/>
<path style="fill:#FF7171;" d="M234.419,289.201c-0.011-0.541-0.024-1.08-0.042-1.621c-0.011-0.366-0.024-0.732-0.038-1.098
	c-0.024-0.548-0.051-1.096-0.082-1.645c-0.021-0.356-0.038-0.71-0.061-1.064c-0.038-0.571-0.082-1.141-0.127-1.71
	c-0.024-0.329-0.049-0.659-0.078-0.987c-0.056-0.644-0.12-1.286-0.188-1.928c-0.026-0.253-0.049-0.503-0.078-0.755
	c-0.199-1.796-0.438-3.587-0.72-5.37c-0.042-0.263-0.089-0.527-0.132-0.792c-0.103-0.622-0.206-1.244-0.319-1.864
	c-0.058-0.327-0.122-0.653-0.185-0.98c-0.105-0.556-0.213-1.114-0.326-1.668c-0.072-0.348-0.145-0.694-0.219-1.042
	c-0.117-0.535-0.232-1.071-0.356-1.605c-0.08-0.352-0.164-0.702-0.246-1.055c-0.127-0.529-0.257-1.056-0.389-1.585
	c-0.089-0.35-0.178-0.699-0.27-1.048c-0.138-0.533-0.284-1.065-0.431-1.597c-0.094-0.335-0.188-0.674-0.284-1.009
	c-0.159-0.556-0.326-1.11-0.494-1.662c-0.092-0.308-0.183-0.616-0.279-0.922c-0.194-0.626-0.398-1.249-0.603-1.871
	c-0.076-0.231-0.15-0.462-0.225-0.692c-0.291-0.86-0.59-1.717-0.898-2.57c-0.002-0.003-0.002-0.006-0.005-0.008
	c-0.304-0.842-0.621-1.681-0.945-2.514c-0.098-0.254-0.204-0.505-0.304-0.757c-0.23-0.583-0.462-1.167-0.704-1.745
	c-0.127-0.307-0.26-0.61-0.389-0.916c-0.223-0.524-0.45-1.049-0.68-1.571c-0.143-0.321-0.291-0.644-0.436-0.966
	c-0.228-0.501-0.458-1.003-0.692-1.502c-0.154-0.326-0.309-0.653-0.467-0.978c-0.237-0.493-0.478-0.983-0.722-1.471
	c-0.161-0.325-0.324-0.649-0.49-0.972c-0.251-0.492-0.505-0.979-0.764-1.467c-0.166-0.313-0.328-0.628-0.499-0.939
	c-0.275-0.508-0.554-1.015-0.837-1.518c-0.159-0.285-0.317-0.571-0.478-0.856c-0.324-0.567-0.657-1.133-0.99-1.695
	c-0.127-0.215-0.253-0.431-0.38-0.645c-0.469-0.783-0.95-1.558-1.439-2.332c-0.018-0.027-0.035-0.055-0.054-0.084
	c-0.467-0.737-0.945-1.468-1.428-2.195c-0.157-0.233-0.319-0.464-0.476-0.698c-0.351-0.518-0.704-1.037-1.064-1.55
	c-0.194-0.277-0.396-0.553-0.593-0.831c-0.333-0.466-0.666-0.93-1.006-1.392c-0.215-0.291-0.431-0.579-0.648-0.869
	c-0.333-0.443-0.668-0.883-1.008-1.323c-0.225-0.293-0.453-0.585-0.684-0.875c-0.34-0.432-0.684-0.863-1.032-1.291
	c-0.232-0.287-0.467-0.575-0.704-0.86c-0.356-0.43-0.717-0.857-1.079-1.283c-0.235-0.275-0.469-0.551-0.706-0.826
	c-0.384-0.442-0.773-0.88-1.165-1.316c-0.223-0.248-0.443-0.5-0.668-0.746c-0.45-0.494-0.907-0.983-1.367-1.471
	c-0.172-0.183-0.342-0.368-0.516-0.551c-0.644-0.673-1.294-1.34-1.953-1.998c-0.04-0.04-0.08-0.078-0.12-0.117
	c-0.617-0.613-1.24-1.22-1.871-1.821c-0.213-0.204-0.431-0.403-0.645-0.604c-0.465-0.434-0.93-0.868-1.401-1.296
	c-0.26-0.237-0.525-0.469-0.787-0.702c-0.436-0.388-0.872-0.775-1.311-1.156c-0.284-0.245-0.572-0.489-0.858-0.731
	c-0.255-0.216-0.507-0.437-0.764-0.651l-0.092-0.065c-4.822-4.012-10.024-7.696-15.604-10.985
	c-4.339-2.557-8.775-4.804-13.281-6.747c-12.142-5.234-24.799-8.245-37.47-9.205c-10.364,17.931-17.095,38.221-19.196,59.869
	c3.981-0.868,8.113-1.339,12.355-1.339c31.886,0,57.735,25.849,57.735,57.735c0,24.282-14.996,45.049-36.228,53.579
	c15.256,18.271,34.805,32.829,57.098,42.127l20.596-34.936c0.492-0.833,0.97-1.671,1.437-2.51c0.154-0.276,0.302-0.553,0.452-0.831
	c0.31-0.567,0.621-1.135,0.921-1.706c0.174-0.329,0.342-0.661,0.511-0.992c0.265-0.519,0.532-1.039,0.791-1.562
	c0.176-0.355,0.349-0.709,0.518-1.065c0.244-0.503,0.485-1.009,0.722-1.514c0.167-0.363,0.335-0.728,0.501-1.09
	c0.228-0.505,0.453-1.01,0.675-1.517c0.159-0.364,0.317-0.729,0.471-1.093c0.216-0.513,0.431-1.027,0.642-1.542
	c0.145-0.358,0.293-0.717,0.436-1.077c0.213-0.537,0.418-1.074,0.621-1.613c0.129-0.338,0.26-0.674,0.384-1.011
	c0.221-0.602,0.436-1.206,0.648-1.811c0.096-0.275,0.197-0.548,0.291-0.825c0.603-1.765,1.165-3.539,1.678-5.318
	c0.082-0.283,0.159-0.565,0.237-0.848c0.172-0.608,0.342-1.216,0.502-1.828c0.089-0.339,0.174-0.68,0.26-1.019
	c0.143-0.554,0.281-1.11,0.415-1.666c0.087-0.363,0.167-0.728,0.253-1.089c0.12-0.537,0.241-1.071,0.356-1.609
	c0.08-0.371,0.159-0.744,0.235-1.117c0.108-0.533,0.213-1.067,0.312-1.599c0.072-0.372,0.141-0.745,0.208-1.118
	c0.096-0.54,0.188-1.079,0.277-1.62c0.061-0.364,0.12-0.727,0.176-1.09c0.087-0.566,0.167-1.132,0.248-1.698
	c0.047-0.338,0.096-0.674,0.141-1.011c0.082-0.634,0.157-1.266,0.228-1.899c0.031-0.27,0.068-0.542,0.096-0.812
	c0.194-1.812,0.347-3.628,0.455-5.441c0.018-0.277,0.026-0.553,0.042-0.831c0.033-0.628,0.065-1.257,0.089-1.884
	c0.014-0.338,0.021-0.675,0.029-1.014c0.016-0.567,0.031-1.134,0.038-1.701c0.007-0.362,0.007-0.724,0.009-1.086
	c0.002-0.545,0.002-1.089-0.002-1.634C234.433,289.94,234.426,289.571,234.419,289.201z"/>
<path style="fill:#ED322E;" d="M127.197,493.437L39.191,344.136c-0.492-0.833-0.97-1.671-1.439-2.51
	c-0.152-0.276-0.3-0.553-0.45-0.831c-0.31-0.567-0.621-1.135-0.923-1.706c-0.172-0.329-0.34-0.661-0.509-0.992
	c-0.268-0.519-0.534-1.039-0.793-1.562c-0.174-0.355-0.347-0.709-0.518-1.065c-0.244-0.503-0.483-1.009-0.72-1.514
	c-0.169-0.363-0.335-0.728-0.501-1.09c-0.23-0.505-0.454-1.01-0.675-1.517c-0.159-0.364-0.317-0.729-0.471-1.093
	c-0.219-0.513-0.431-1.027-0.641-1.542c-0.145-0.358-0.293-0.717-0.436-1.077c-0.212-0.537-0.418-1.074-0.624-1.613
	c-0.127-0.337-0.257-0.674-0.382-1.011c-0.223-0.602-0.436-1.206-0.648-1.811c-0.096-0.275-0.197-0.548-0.291-0.825
	c-0.605-1.765-1.165-3.539-1.681-5.318c-0.08-0.283-0.157-0.565-0.237-0.848c-0.169-0.608-0.34-1.216-0.502-1.828
	c-0.087-0.339-0.172-0.68-0.26-1.019c-0.141-0.554-0.281-1.11-0.413-1.666c-0.087-0.363-0.169-0.728-0.253-1.089
	c-0.122-0.537-0.244-1.071-0.358-1.609c-0.078-0.371-0.157-0.744-0.232-1.117c-0.108-0.533-0.213-1.067-0.315-1.599
	c-0.07-0.372-0.138-0.745-0.206-1.118c-0.096-0.54-0.188-1.079-0.277-1.62c-0.061-0.364-0.12-0.727-0.176-1.09
	c-0.087-0.566-0.167-1.132-0.248-1.698c-0.047-0.338-0.096-0.674-0.141-1.011c-0.082-0.634-0.157-1.266-0.23-1.899
	c-0.031-0.27-0.065-0.542-0.094-0.812c-0.194-1.812-0.347-3.628-0.456-5.441c-0.018-0.277-0.029-0.553-0.042-0.831
	c-0.033-0.628-0.067-1.257-0.089-1.884c-0.014-0.337-0.021-0.675-0.029-1.014c-0.018-0.567-0.031-1.134-0.04-1.701
	c-0.005-0.362-0.005-0.724-0.007-1.086c-0.005-0.545-0.005-1.089,0.002-1.634c0.002-0.37,0.009-0.739,0.016-1.11
	c0.009-0.541,0.025-1.08,0.04-1.621c0.014-0.366,0.024-0.732,0.04-1.098c0.022-0.548,0.051-1.096,0.082-1.645
	c0.018-0.356,0.038-0.71,0.061-1.064c0.038-0.571,0.08-1.141,0.125-1.71c0.026-0.329,0.051-0.659,0.08-0.987
	c0.056-0.644,0.121-1.286,0.188-1.928c0.026-0.253,0.049-0.503,0.076-0.755c0.199-1.796,0.44-3.587,0.722-5.37
	c0.04-0.263,0.087-0.527,0.132-0.792c0.103-0.622,0.206-1.244,0.317-1.864c0.061-0.327,0.125-0.653,0.185-0.98
	c0.108-0.556,0.215-1.114,0.326-1.668c0.072-0.348,0.148-0.694,0.221-1.042c0.114-0.535,0.232-1.071,0.354-1.605
	c0.082-0.352,0.164-0.702,0.248-1.055c0.125-0.529,0.255-1.056,0.389-1.585c0.089-0.35,0.176-0.699,0.27-1.048
	c0.138-0.533,0.284-1.065,0.431-1.597c0.094-0.335,0.185-0.674,0.284-1.009c0.159-0.556,0.324-1.11,0.494-1.662
	c0.092-0.308,0.183-0.616,0.277-0.922c0.197-0.626,0.4-1.249,0.605-1.871c0.076-0.231,0.148-0.462,0.225-0.692
	c0.291-0.86,0.588-1.717,0.898-2.57c0.002-0.003,0.002-0.006,0.002-0.006c0.307-0.844,0.624-1.683,0.947-2.516
	c0.098-0.254,0.201-0.505,0.302-0.757c0.232-0.583,0.464-1.167,0.706-1.745c0.127-0.307,0.259-0.61,0.389-0.916
	c0.223-0.524,0.45-1.049,0.68-1.571c0.143-0.321,0.288-0.644,0.436-0.966c0.225-0.501,0.458-1.003,0.692-1.502
	c0.152-0.326,0.309-0.653,0.464-0.978c0.239-0.493,0.478-0.983,0.724-1.471c0.161-0.325,0.324-0.649,0.49-0.972
	c0.251-0.492,0.505-0.979,0.762-1.467c0.167-0.313,0.331-0.628,0.501-0.939c0.275-0.508,0.554-1.015,0.837-1.518
	c0.159-0.285,0.315-0.571,0.478-0.856c0.324-0.567,0.657-1.133,0.99-1.695c0.127-0.215,0.251-0.431,0.38-0.645
	c0.469-0.783,0.95-1.558,1.437-2.332c0.018-0.027,0.038-0.055,0.056-0.084c0.467-0.737,0.943-1.468,1.428-2.195
	c0.157-0.233,0.317-0.464,0.476-0.698c0.351-0.518,0.704-1.037,1.064-1.55c0.194-0.277,0.394-0.553,0.593-0.831
	c0.331-0.466,0.666-0.93,1.006-1.392c0.215-0.291,0.431-0.579,0.648-0.869c0.333-0.443,0.668-0.883,1.008-1.323
	c0.225-0.293,0.453-0.585,0.684-0.875c0.34-0.432,0.684-0.863,1.032-1.291c0.232-0.287,0.467-0.575,0.704-0.86
	c0.355-0.43,0.715-0.857,1.079-1.283c0.235-0.275,0.467-0.551,0.704-0.826c0.384-0.442,0.776-0.88,1.167-1.316
	c0.221-0.248,0.443-0.5,0.668-0.746c0.45-0.494,0.907-0.983,1.367-1.471c0.172-0.183,0.342-0.368,0.516-0.551
	c0.642-0.673,1.292-1.34,1.953-1.998c0.04-0.04,0.08-0.078,0.12-0.117c0.614-0.613,1.238-1.22,1.871-1.821
	c0.213-0.204,0.431-0.403,0.645-0.604c0.462-0.434,0.928-0.868,1.401-1.296c0.26-0.237,0.523-0.469,0.787-0.702
	c0.434-0.388,0.869-0.775,1.311-1.156c0.284-0.245,0.57-0.489,0.858-0.731c0.255-0.216,0.505-0.437,0.764-0.651l0.089-0.065
	c4.825-4.012,10.027-7.696,15.606-10.985c4.339-2.557,8.775-4.804,13.281-6.747c0.479-0.207,0.966-0.384,1.446-0.585
	c-8.235,1.575-16.392,4.027-24.327,7.449c-4.508,1.943-8.942,4.19-13.281,6.747c-5.58,3.289-10.782,6.973-15.606,10.985
	l-0.089,0.065c-0.26,0.215-0.509,0.435-0.764,0.651c-0.288,0.243-0.574,0.486-0.858,0.731c-0.443,0.381-0.879,0.768-1.311,1.156
	c-0.263,0.233-0.527,0.466-0.787,0.702c-0.474,0.428-0.938,0.863-1.401,1.296c-0.215,0.202-0.434,0.4-0.645,0.604
	c-0.633,0.601-1.256,1.208-1.871,1.821c-0.04,0.039-0.08,0.077-0.121,0.117c-0.661,0.658-1.311,1.325-1.953,1.998
	c-0.174,0.183-0.344,0.368-0.516,0.551c-0.46,0.489-0.919,0.978-1.367,1.471c-0.225,0.247-0.447,0.498-0.668,0.746
	c-0.391,0.437-0.783,0.875-1.166,1.316c-0.237,0.275-0.469,0.55-0.704,0.826c-0.364,0.426-0.724,0.852-1.079,1.283
	c-0.237,0.285-0.471,0.573-0.704,0.86c-0.349,0.428-0.692,0.858-1.032,1.291c-0.23,0.291-0.458,0.582-0.684,0.875
	c-0.34,0.439-0.675,0.881-1.008,1.323c-0.217,0.291-0.434,0.579-0.648,0.869c-0.34,0.462-0.675,0.927-1.006,1.392
	c-0.199,0.277-0.398,0.553-0.593,0.831c-0.359,0.514-0.713,1.032-1.064,1.55c-0.159,0.233-0.319,0.465-0.476,0.698
	c-0.485,0.728-0.961,1.459-1.428,2.195c-0.018,0.029-0.038,0.056-0.056,0.084c-0.487,0.773-0.968,1.549-1.437,2.332
	c-0.129,0.215-0.253,0.43-0.38,0.645c-0.333,0.563-0.666,1.128-0.99,1.695c-0.164,0.285-0.319,0.571-0.478,0.856
	c-0.284,0.503-0.563,1.01-0.837,1.518c-0.169,0.311-0.333,0.626-0.501,0.939c-0.257,0.487-0.511,0.976-0.762,1.467
	c-0.165,0.323-0.328,0.646-0.49,0.972c-0.246,0.489-0.485,0.978-0.724,1.471c-0.157,0.325-0.312,0.652-0.464,0.978
	c-0.235,0.499-0.467,1.001-0.693,1.502c-0.148,0.321-0.293,0.644-0.436,0.966c-0.23,0.522-0.455,1.047-0.68,1.571
	c-0.129,0.307-0.262,0.609-0.389,0.916c-0.241,0.579-0.474,1.162-0.706,1.745c-0.101,0.253-0.204,0.503-0.302,0.757
	c-0.324,0.834-0.642,1.671-0.947,2.514c0,0,0,0.005-0.002,0.008c-0.31,0.852-0.608,1.709-0.898,2.57
	c-0.078,0.23-0.15,0.461-0.225,0.692c-0.206,0.621-0.408,1.245-0.605,1.871c-0.094,0.307-0.185,0.614-0.277,0.922
	c-0.169,0.553-0.335,1.106-0.494,1.662c-0.098,0.335-0.19,0.674-0.284,1.009c-0.148,0.532-0.293,1.064-0.431,1.597
	c-0.094,0.349-0.181,0.698-0.27,1.048c-0.134,0.529-0.263,1.056-0.389,1.585c-0.085,0.352-0.166,0.702-0.248,1.055
	c-0.12,0.534-0.239,1.071-0.354,1.605c-0.073,0.348-0.15,0.694-0.221,1.042c-0.112,0.554-0.219,1.112-0.326,1.668
	c-0.061,0.326-0.125,0.652-0.185,0.98c-0.112,0.62-0.215,1.241-0.317,1.864c-0.045,0.264-0.092,0.529-0.132,0.792
	c-0.281,1.784-0.523,3.574-0.722,5.37c-0.027,0.252-0.049,0.502-0.076,0.755c-0.067,0.642-0.132,1.284-0.188,1.928
	c-0.029,0.328-0.054,0.658-0.08,0.987c-0.045,0.57-0.087,1.139-0.125,1.71c-0.023,0.354-0.042,0.708-0.061,1.064
	c-0.031,0.548-0.061,1.097-0.082,1.645c-0.016,0.366-0.026,0.732-0.04,1.098c-0.016,0.541-0.031,1.08-0.04,1.621
	c-0.007,0.37-0.014,0.739-0.016,1.11c-0.007,0.545-0.007,1.089-0.002,1.634c0.002,0.362,0.002,0.724,0.007,1.086
	c0.009,0.567,0.023,1.134,0.04,1.701c0.009,0.339,0.016,0.676,0.029,1.014c0.022,0.628,0.056,1.257,0.089,1.884
	c0.014,0.277,0.024,0.553,0.042,0.831c0.11,1.813,0.261,3.629,0.456,5.441c0.029,0.27,0.063,0.542,0.094,0.812
	c0.073,0.633,0.148,1.266,0.23,1.899c0.045,0.337,0.094,0.674,0.141,1.011c0.08,0.566,0.161,1.132,0.248,1.698
	c0.056,0.364,0.117,0.727,0.176,1.09c0.089,0.541,0.181,1.08,0.277,1.62c0.068,0.372,0.136,0.745,0.206,1.118
	c0.103,0.533,0.208,1.067,0.315,1.599c0.076,0.372,0.154,0.745,0.232,1.117c0.114,0.538,0.235,1.073,0.358,1.609
	c0.082,0.362,0.166,0.727,0.253,1.089c0.132,0.556,0.272,1.112,0.413,1.666c0.087,0.34,0.172,0.681,0.26,1.019
	c0.164,0.611,0.333,1.22,0.502,1.828c0.08,0.283,0.157,0.565,0.237,0.848c0.516,1.78,1.074,3.552,1.681,5.318
	c0.094,0.276,0.194,0.549,0.291,0.825c0.213,0.605,0.424,1.209,0.648,1.811c0.125,0.338,0.255,0.674,0.382,1.011
	c0.206,0.539,0.411,1.077,0.624,1.613c0.143,0.359,0.291,0.718,0.436,1.077c0.211,0.514,0.422,1.029,0.642,1.542
	c0.154,0.364,0.313,0.729,0.471,1.093c0.221,0.507,0.445,1.013,0.675,1.517c0.165,0.363,0.331,0.728,0.501,1.09
	c0.237,0.505,0.476,1.01,0.72,1.514c0.172,0.356,0.344,0.71,0.518,1.065c0.26,0.523,0.525,1.042,0.793,1.562
	c0.169,0.331,0.337,0.662,0.509,0.992c0.302,0.571,0.612,1.138,0.923,1.706c0.15,0.277,0.297,0.554,0.45,0.831
	c0.469,0.839,0.947,1.678,1.439,2.51l88.006,149.301c3.092,3.978,7.497,7.751,12.904,7.366c5.41,0.387,9.814-3.388,12.904-7.366
	l1.428-2.423C129.903,496.601,128.441,495.039,127.197,493.437z"/>
<path style="fill:#29ABE2;" d="M491.752,76.59c-0.002-0.228-0.005-0.458-0.009-0.686c-0.007-0.335-0.016-0.67-0.025-1.004
	c-0.009-0.228-0.016-0.453-0.026-0.682c-0.014-0.339-0.031-0.68-0.049-1.018c-0.014-0.221-0.025-0.44-0.038-0.659
	c-0.023-0.355-0.051-0.707-0.078-1.061c-0.016-0.205-0.031-0.408-0.049-0.612c-0.035-0.398-0.074-0.796-0.117-1.193
	c-0.018-0.157-0.031-0.311-0.047-0.468c-0.125-1.113-0.272-2.222-0.447-3.327c-0.026-0.162-0.056-0.326-0.082-0.491
	c-0.063-0.386-0.127-0.77-0.197-1.156c-0.038-0.204-0.076-0.405-0.114-0.607c-0.067-0.343-0.132-0.69-0.204-1.033
	c-0.045-0.215-0.092-0.429-0.136-0.646c-0.072-0.329-0.143-0.664-0.219-0.993c-0.052-0.219-0.103-0.437-0.154-0.653
	c-0.078-0.328-0.159-0.653-0.241-0.982c-0.054-0.215-0.11-0.434-0.166-0.649c-0.087-0.329-0.176-0.659-0.268-0.988
	c-0.058-0.209-0.117-0.416-0.176-0.626c-0.098-0.344-0.201-0.686-0.304-1.03c-0.058-0.19-0.114-0.381-0.174-0.57
	c-0.12-0.389-0.246-0.775-0.373-1.16c-0.047-0.143-0.094-0.286-0.141-0.428c-0.178-0.535-0.364-1.065-0.556-1.594l-0.002-0.005
	c-0.19-0.522-0.384-1.041-0.586-1.556c-0.063-0.158-0.125-0.312-0.188-0.469c-0.143-0.362-0.288-0.724-0.438-1.081
	c-0.078-0.19-0.161-0.378-0.239-0.567c-0.138-0.325-0.279-0.65-0.422-0.972c-0.087-0.201-0.178-0.399-0.268-0.599l-0.007-0.009
	c-0.138-0.307-0.28-0.614-0.422-0.922c-0.096-0.202-0.192-0.405-0.291-0.606c-0.148-0.305-0.295-0.609-0.447-0.912
	c-0.101-0.201-0.201-0.402-0.304-0.602c-0.157-0.304-0.312-0.605-0.471-0.907c-0.105-0.196-0.206-0.39-0.311-0.583
	c-0.169-0.313-0.344-0.628-0.518-0.94c-0.101-0.175-0.197-0.355-0.297-0.53c-0.201-0.352-0.406-0.701-0.614-1.051
	c-0.078-0.134-0.154-0.267-0.235-0.4c-0.291-0.485-0.588-0.967-0.891-1.444c-0.009-0.018-0.023-0.034-0.033-0.053
	c-0.288-0.456-0.586-0.91-0.884-1.36c-0.096-0.144-0.197-0.287-0.295-0.432c-0.217-0.321-0.436-0.642-0.657-0.961
	c-0.124-0.172-0.246-0.342-0.368-0.515c-0.206-0.288-0.411-0.575-0.621-0.863c-0.134-0.178-0.268-0.358-0.403-0.538
	c-0.206-0.275-0.413-0.548-0.624-0.821c-0.141-0.18-0.281-0.359-0.424-0.542c-0.213-0.267-0.424-0.533-0.639-0.799
	c-0.145-0.176-0.291-0.356-0.438-0.533c-0.219-0.267-0.443-0.53-0.666-0.794c-0.145-0.169-0.291-0.341-0.438-0.511
	c-0.239-0.272-0.481-0.545-0.722-0.816c-0.138-0.153-0.275-0.309-0.413-0.461c-0.279-0.305-0.563-0.609-0.847-0.912
	c-0.11-0.116-0.213-0.229-0.322-0.342c-0.398-0.416-0.8-0.831-1.209-1.238c-0.025-0.024-0.049-0.049-0.076-0.072
	c-0.38-0.38-0.767-0.756-1.158-1.128c-0.129-0.124-0.264-0.246-0.396-0.367l-0.005-0.007c-0.288-0.269-0.577-0.538-0.87-0.803
	c-0.161-0.146-0.324-0.291-0.487-0.435c-0.268-0.24-0.539-0.481-0.811-0.716c-0.176-0.152-0.356-0.303-0.532-0.453
	c-0.159-0.134-0.315-0.27-0.474-0.403l-0.056-0.041c-2.987-2.485-6.212-4.767-9.669-6.805c-0.673-0.397-1.348-0.78-2.027-1.152
	c-2.038-1.118-4.107-2.125-6.201-3.027c-8.379-3.612-17.154-5.529-25.896-5.869c-0.166-0.003-0.328-0.014-0.494-0.018
	c-0.708-0.022-1.416-0.021-2.125-0.022c-0.708,0.001-1.416,0-2.125,0.022c-0.166,0.005-0.328,0.015-0.494,0.018
	c-1.093,0.042-2.185,0.11-3.278,0.202c-7.652,0.644-15.286,2.506-22.618,5.667c-2.792,1.204-5.54,2.596-8.227,4.179
	c-3.456,2.038-6.681,4.32-9.669,6.805l-0.056,0.041c-0.159,0.133-0.315,0.269-0.474,0.403c-0.176,0.15-0.356,0.301-0.532,0.453
	c-0.272,0.236-0.543,0.476-0.811,0.716c-0.164,0.144-0.326,0.288-0.487,0.435c-0.293,0.265-0.581,0.534-0.87,0.803l-0.005,0.007
	c-0.132,0.121-0.265,0.244-0.396,0.367c-0.391,0.372-0.778,0.748-1.158,1.128c-0.026,0.023-0.052,0.048-0.076,0.072
	c-0.408,0.406-0.811,0.821-1.209,1.238c-0.11,0.113-0.212,0.227-0.321,0.342c-0.284,0.303-0.567,0.605-0.847,0.912
	c-0.138,0.153-0.275,0.309-0.413,0.461c-0.241,0.271-0.483,0.543-0.722,0.816c-0.148,0.17-0.293,0.342-0.438,0.511
	c-0.223,0.265-0.447,0.529-0.666,0.794c-0.148,0.177-0.293,0.356-0.438,0.533c-0.215,0.265-0.427,0.532-0.64,0.799
	c-0.143,0.182-0.284,0.362-0.424,0.542c-0.21,0.272-0.418,0.547-0.624,0.821c-0.134,0.18-0.268,0.358-0.403,0.538
	c-0.211,0.287-0.415,0.574-0.621,0.863c-0.122,0.173-0.246,0.343-0.368,0.515c-0.221,0.318-0.44,0.64-0.657,0.961
	c-0.098,0.145-0.199,0.288-0.295,0.432c-0.3,0.452-0.596,0.904-0.884,1.36c-0.011,0.018-0.024,0.034-0.033,0.053
	c-0.304,0.477-0.601,0.959-0.891,1.444c-0.08,0.133-0.157,0.265-0.235,0.4c-0.208,0.35-0.413,0.699-0.614,1.051
	c-0.101,0.175-0.197,0.354-0.297,0.53c-0.174,0.312-0.349,0.627-0.518,0.94c-0.105,0.193-0.206,0.388-0.311,0.583
	c-0.159,0.302-0.315,0.603-0.471,0.907c-0.103,0.2-0.204,0.402-0.304,0.602c-0.152,0.303-0.3,0.606-0.447,0.912
	c-0.098,0.202-0.195,0.405-0.291,0.606c-0.142,0.308-0.284,0.616-0.422,0.922l-0.007,0.009c-0.089,0.201-0.181,0.399-0.268,0.599
	c-0.143,0.321-0.284,0.646-0.422,0.972c-0.078,0.19-0.161,0.378-0.239,0.567c-0.15,0.358-0.295,0.72-0.438,1.081
	c-0.063,0.157-0.125,0.311-0.188,0.469c-0.201,0.515-0.396,1.034-0.586,1.556c0,0,0,0.002-0.002,0.005
	c-0.192,0.53-0.375,1.059-0.556,1.594c-0.047,0.142-0.092,0.285-0.141,0.428c-0.127,0.386-0.253,0.771-0.373,1.16
	c-0.061,0.189-0.117,0.38-0.174,0.57c-0.103,0.344-0.206,0.686-0.304,1.03c-0.061,0.209-0.119,0.416-0.176,0.626
	c-0.091,0.329-0.181,0.659-0.268,0.988c-0.056,0.215-0.112,0.434-0.166,0.649c-0.085,0.328-0.164,0.653-0.241,0.982
	c-0.052,0.216-0.103,0.435-0.154,0.653c-0.073,0.329-0.148,0.664-0.219,0.993c-0.045,0.217-0.092,0.431-0.136,0.646
	c-0.072,0.344-0.136,0.69-0.204,1.033c-0.038,0.204-0.076,0.405-0.114,0.607c-0.07,0.386-0.134,0.77-0.197,1.156
	c-0.026,0.165-0.056,0.327-0.082,0.491c-0.174,1.105-0.322,2.215-0.447,3.327c-0.016,0.157-0.029,0.312-0.047,0.468
	c-0.04,0.397-0.08,0.795-0.117,1.193c-0.018,0.204-0.033,0.407-0.049,0.612c-0.026,0.354-0.056,0.706-0.078,1.061
	c-0.014,0.219-0.026,0.438-0.038,0.659c-0.018,0.339-0.035,0.68-0.049,1.018c-0.011,0.228-0.018,0.454-0.026,0.682
	c-0.009,0.334-0.018,0.669-0.024,1.004c-0.005,0.228-0.007,0.458-0.009,0.686c-0.005,0.337-0.005,0.676-0.002,1.013
	c0.002,0.224,0.002,0.45,0.005,0.673c0.007,0.352,0.016,0.702,0.025,1.055c0.007,0.211,0.011,0.419,0.018,0.628
	c0.016,0.389,0.033,0.779,0.054,1.168c0.011,0.173,0.018,0.343,0.026,0.514c0.069,1.123,0.162,2.248,0.284,3.37
	c0.018,0.167,0.04,0.338,0.061,0.505c0.045,0.391,0.089,0.785,0.141,1.176c0.026,0.209,0.058,0.416,0.087,0.626
	c0.049,0.35,0.101,0.7,0.154,1.053c0.035,0.227,0.072,0.45,0.11,0.676c0.056,0.335,0.112,0.668,0.172,1.003
	c0.04,0.23,0.082,0.46,0.127,0.692c0.063,0.328,0.127,0.66,0.195,0.99c0.047,0.231,0.094,0.462,0.145,0.692
	c0.07,0.333,0.145,0.664,0.219,0.995c0.026,0.112,0.054,0.225,0.079,0.338c0.025,0.114,0.05,0.225,0.077,0.339
	c0.082,0.344,0.169,0.689,0.257,1.032c0.054,0.211,0.108,0.421,0.161,0.63c0.101,0.379,0.206,0.756,0.312,1.133
	c0.049,0.174,0.096,0.351,0.145,0.525c0.319,1.102,0.666,2.201,1.041,3.296c0.058,0.17,0.12,0.341,0.181,0.509
	c0.129,0.376,0.263,0.749,0.4,1.122c0.078,0.209,0.159,0.416,0.237,0.627c0.127,0.333,0.255,0.667,0.387,0.999
	c0.089,0.223,0.178,0.445,0.27,0.667c0.129,0.319,0.261,0.638,0.396,0.956c0.098,0.224,0.194,0.451,0.293,0.676
	c0.138,0.313,0.277,0.628,0.418,0.94c0.103,0.224,0.206,0.452,0.311,0.675c0.145,0.313,0.295,0.626,0.447,0.937
	c0.105,0.221,0.212,0.442,0.322,0.66c0.161,0.324,0.324,0.645,0.49,0.969c0.105,0.205,0.211,0.41,0.317,0.613
	c0.185,0.355,0.378,0.706,0.57,1.058c0.094,0.172,0.185,0.342,0.279,0.514c0.291,0.519,0.588,1.04,0.891,1.556l54.524,92.498
	c1.915,2.464,4.644,4.803,7.995,4.563c3.352,0.24,6.08-2.098,7.995-4.563l54.524-92.498c0.304-0.516,0.601-1.037,0.891-1.556
	c0.094-0.172,0.185-0.342,0.279-0.514c0.192-0.352,0.384-0.704,0.57-1.058c0.108-0.204,0.212-0.408,0.317-0.613
	c0.166-0.323,0.328-0.644,0.49-0.969c0.11-0.219,0.217-0.439,0.322-0.66c0.152-0.311,0.302-0.624,0.447-0.937
	c0.105-0.223,0.208-0.451,0.311-0.675c0.141-0.312,0.279-0.627,0.418-0.94c0.098-0.225,0.194-0.452,0.293-0.676
	c0.134-0.318,0.265-0.637,0.396-0.956c0.091-0.222,0.181-0.444,0.27-0.667c0.132-0.332,0.26-0.666,0.387-0.999
	c0.078-0.211,0.159-0.418,0.237-0.627c0.138-0.373,0.27-0.746,0.4-1.122c0.061-0.168,0.122-0.339,0.181-0.509
	c0.373-1.095,0.722-2.194,1.041-3.296c0.049-0.174,0.096-0.351,0.145-0.525c0.108-0.376,0.212-0.754,0.312-1.133
	c0.054-0.209,0.108-0.42,0.161-0.63c0.087-0.344,0.174-0.689,0.257-1.032c0.026-0.113,0.051-0.224,0.077-0.339
	c0.025-0.112,0.053-0.225,0.079-0.337c0.073-0.332,0.15-0.662,0.219-0.995c0.049-0.23,0.098-0.461,0.145-0.692
	c0.068-0.329,0.132-0.661,0.195-0.99c0.045-0.232,0.087-0.462,0.127-0.692c0.061-0.335,0.118-0.668,0.172-1.003
	c0.038-0.227,0.076-0.45,0.11-0.676c0.054-0.352,0.105-0.702,0.154-1.053c0.029-0.209,0.061-0.416,0.087-0.626
	c0.052-0.392,0.096-0.786,0.141-1.176c0.021-0.167,0.042-0.337,0.061-0.505c0.12-1.122,0.215-2.247,0.284-3.37
	c0.009-0.17,0.016-0.341,0.026-0.514c0.019-0.389,0.038-0.779,0.054-1.168c0.007-0.209,0.011-0.418,0.018-0.628
	c0.009-0.352,0.019-0.702,0.024-1.055c0.002-0.223,0.002-0.448,0.005-0.673C491.757,77.266,491.757,76.928,491.752,76.59z
	 M419.132,105.494c-16.031-0.12-28.988-13.148-28.988-29.205c0-16.058,12.958-29.086,28.988-29.206
	c16.031,0.12,28.988,13.148,28.988,29.206C448.121,92.345,435.163,105.373,419.132,105.494z"/>
<path style="fill:#36BBEA;" d="M491.743,75.904c-0.007-0.335-0.016-0.67-0.025-1.004c-0.009-0.228-0.016-0.453-0.026-0.682
	c-0.014-0.339-0.031-0.68-0.049-1.018c-0.014-0.221-0.025-0.44-0.038-0.659c-0.023-0.355-0.051-0.707-0.078-1.061
	c-0.016-0.205-0.031-0.408-0.049-0.612c-0.035-0.398-0.074-0.796-0.117-1.193c-0.018-0.157-0.031-0.311-0.047-0.468
	c-0.125-1.113-0.272-2.222-0.447-3.327c-0.026-0.162-0.056-0.326-0.082-0.491c-0.063-0.386-0.127-0.77-0.197-1.156
	c-0.038-0.204-0.076-0.405-0.114-0.607c-0.067-0.343-0.132-0.69-0.204-1.033c-0.045-0.215-0.092-0.429-0.136-0.646
	c-0.072-0.329-0.143-0.664-0.219-0.993c-0.052-0.219-0.103-0.437-0.154-0.653c-0.078-0.328-0.159-0.653-0.241-0.982
	c-0.054-0.215-0.11-0.434-0.166-0.649c-0.087-0.329-0.176-0.659-0.268-0.988c-0.058-0.209-0.117-0.416-0.176-0.626
	c-0.098-0.344-0.201-0.686-0.304-1.03c-0.058-0.19-0.114-0.381-0.174-0.57c-0.12-0.389-0.246-0.775-0.373-1.16
	c-0.047-0.143-0.094-0.286-0.141-0.428c-0.178-0.535-0.364-1.065-0.556-1.594l-0.002-0.005c-0.19-0.522-0.384-1.041-0.586-1.556
	c-0.063-0.158-0.125-0.312-0.188-0.469c-0.143-0.362-0.288-0.724-0.438-1.081c-0.078-0.19-0.161-0.378-0.239-0.567
	c-0.138-0.325-0.279-0.65-0.422-0.972c-0.087-0.201-0.178-0.399-0.268-0.599l-0.007-0.009c-0.138-0.307-0.28-0.614-0.422-0.922
	c-0.096-0.202-0.192-0.405-0.291-0.606c-0.148-0.305-0.295-0.609-0.447-0.912c-0.101-0.201-0.201-0.402-0.304-0.602
	c-0.157-0.304-0.312-0.605-0.471-0.907c-0.105-0.196-0.206-0.39-0.311-0.583c-0.169-0.313-0.344-0.628-0.518-0.94
	c-0.101-0.175-0.197-0.355-0.297-0.53c-0.201-0.352-0.406-0.701-0.614-1.051c-0.078-0.134-0.154-0.267-0.235-0.4
	c-0.291-0.485-0.588-0.967-0.891-1.444c-0.009-0.018-0.023-0.034-0.033-0.053c-0.288-0.456-0.586-0.91-0.884-1.36
	c-0.096-0.144-0.197-0.287-0.295-0.432c-0.217-0.321-0.436-0.642-0.657-0.961c-0.124-0.172-0.246-0.342-0.368-0.515
	c-0.206-0.288-0.411-0.575-0.621-0.863c-0.134-0.178-0.268-0.358-0.403-0.538c-0.206-0.275-0.413-0.548-0.624-0.821
	c-0.141-0.18-0.281-0.359-0.424-0.542c-0.213-0.267-0.424-0.533-0.639-0.799c-0.145-0.176-0.291-0.356-0.438-0.533
	c-0.219-0.267-0.443-0.53-0.666-0.794c-0.145-0.169-0.291-0.341-0.438-0.511c-0.239-0.272-0.481-0.545-0.722-0.816
	c-0.138-0.153-0.275-0.309-0.413-0.461c-0.279-0.305-0.563-0.609-0.847-0.912c-0.11-0.116-0.213-0.229-0.322-0.342
	c-0.398-0.416-0.8-0.831-1.209-1.238c-0.025-0.024-0.049-0.049-0.076-0.072c-0.38-0.38-0.767-0.756-1.158-1.128
	c-0.129-0.124-0.264-0.246-0.396-0.367l-0.005-0.007c-0.288-0.269-0.577-0.538-0.87-0.803c-0.161-0.146-0.324-0.291-0.487-0.435
	c-0.268-0.24-0.539-0.481-0.811-0.716c-0.176-0.152-0.356-0.303-0.532-0.453c-0.159-0.134-0.315-0.27-0.474-0.403l-0.056-0.041
	c-2.987-2.485-6.212-4.767-9.669-6.805c-0.673-0.397-1.348-0.78-2.027-1.152c-2.038-1.118-4.107-2.125-6.201-3.027
	c-4.655-2.007-9.435-3.471-14.261-4.453c-8.838,12.038-14.969,26.179-17.519,41.533c1.073-0.127,2.161-0.202,3.265-0.212
	c16.031,0.12,28.988,13.148,28.988,29.206c0,14.438-10.479,26.42-24.244,28.779c8.321,17.559,21.733,32.226,38.332,42.11
	l19.443-32.985c0.304-0.516,0.601-1.037,0.891-1.556c0.094-0.172,0.185-0.342,0.279-0.514c0.192-0.352,0.384-0.704,0.57-1.058
	c0.108-0.204,0.212-0.408,0.317-0.613c0.166-0.323,0.328-0.644,0.49-0.969c0.11-0.219,0.217-0.439,0.322-0.66
	c0.152-0.311,0.302-0.624,0.447-0.937c0.105-0.223,0.208-0.451,0.311-0.675c0.141-0.312,0.279-0.627,0.418-0.94
	c0.098-0.225,0.194-0.452,0.293-0.676c0.134-0.318,0.265-0.637,0.396-0.956c0.091-0.222,0.181-0.444,0.27-0.667
	c0.132-0.332,0.26-0.666,0.387-0.999c0.078-0.211,0.159-0.418,0.237-0.627c0.138-0.373,0.27-0.746,0.4-1.122
	c0.061-0.168,0.122-0.339,0.181-0.509c0.373-1.095,0.722-2.194,1.041-3.296c0.049-0.174,0.096-0.351,0.145-0.525
	c0.108-0.376,0.212-0.754,0.312-1.133c0.054-0.209,0.108-0.42,0.161-0.63c0.087-0.344,0.174-0.689,0.257-1.032
	c0.026-0.113,0.052-0.224,0.077-0.339c0.025-0.112,0.053-0.225,0.079-0.337c0.073-0.332,0.15-0.662,0.219-0.995
	c0.049-0.23,0.098-0.461,0.145-0.692c0.068-0.329,0.132-0.661,0.195-0.99c0.045-0.232,0.087-0.462,0.127-0.692
	c0.061-0.335,0.118-0.668,0.172-1.003c0.038-0.227,0.076-0.45,0.11-0.676c0.054-0.352,0.105-0.702,0.154-1.053
	c0.029-0.209,0.061-0.416,0.087-0.626c0.052-0.392,0.096-0.786,0.141-1.176c0.021-0.167,0.042-0.337,0.061-0.505
	c0.12-1.122,0.215-2.247,0.284-3.37c0.009-0.17,0.016-0.341,0.026-0.514c0.019-0.389,0.038-0.779,0.054-1.168
	c0.007-0.209,0.011-0.418,0.018-0.628c0.009-0.352,0.019-0.702,0.024-1.055c0.002-0.223,0.002-0.448,0.005-0.673
	c0.002-0.336,0.002-0.675-0.002-1.013C491.75,76.362,491.747,76.132,491.743,75.904z"/>
<path style="fill:#1584B5;" d="M379.495,111.904c-0.304-0.516-0.601-1.037-0.891-1.556c-0.094-0.172-0.185-0.342-0.279-0.514
	c-0.192-0.352-0.384-0.704-0.57-1.058c-0.108-0.204-0.213-0.408-0.317-0.613c-0.166-0.323-0.328-0.644-0.49-0.969
	c-0.11-0.219-0.216-0.439-0.321-0.66c-0.152-0.311-0.302-0.624-0.447-0.937c-0.105-0.223-0.208-0.451-0.311-0.675
	c-0.141-0.312-0.279-0.627-0.418-0.94c-0.098-0.225-0.195-0.452-0.293-0.676c-0.134-0.318-0.265-0.637-0.396-0.956
	c-0.092-0.222-0.181-0.444-0.27-0.667c-0.132-0.332-0.26-0.666-0.387-0.999c-0.078-0.211-0.159-0.418-0.237-0.627
	c-0.136-0.373-0.27-0.746-0.4-1.122c-0.061-0.168-0.122-0.339-0.181-0.509c-0.375-1.095-0.722-2.194-1.041-3.296
	c-0.049-0.174-0.096-0.351-0.145-0.525c-0.108-0.376-0.212-0.754-0.312-1.133c-0.054-0.209-0.108-0.42-0.161-0.63
	c-0.087-0.344-0.174-0.689-0.257-1.032c-0.026-0.113-0.051-0.224-0.077-0.339c-0.025-0.112-0.053-0.225-0.079-0.337
	c-0.073-0.332-0.15-0.662-0.219-0.995c-0.052-0.23-0.098-0.461-0.145-0.692c-0.067-0.329-0.132-0.661-0.195-0.99
	c-0.045-0.232-0.087-0.462-0.127-0.692c-0.061-0.335-0.117-0.668-0.172-1.003c-0.038-0.227-0.073-0.45-0.11-0.676
	c-0.054-0.352-0.105-0.702-0.154-1.053c-0.029-0.209-0.061-0.416-0.087-0.626c-0.051-0.392-0.096-0.786-0.141-1.176
	c-0.019-0.167-0.042-0.337-0.061-0.505c-0.12-1.122-0.215-2.247-0.284-3.37c-0.009-0.17-0.016-0.341-0.026-0.514
	c-0.021-0.389-0.038-0.779-0.054-1.168c-0.007-0.209-0.011-0.418-0.018-0.628c-0.009-0.352-0.018-0.702-0.025-1.055
	c-0.002-0.223-0.002-0.448-0.005-0.673c-0.002-0.336-0.002-0.675,0.002-1.013c0.002-0.228,0.005-0.458,0.009-0.686
	c0.007-0.335,0.016-0.67,0.024-1.004c0.009-0.228,0.016-0.453,0.026-0.682c0.014-0.339,0.031-0.68,0.049-1.018
	c0.011-0.221,0.025-0.44,0.038-0.659c0.023-0.355,0.052-0.707,0.078-1.061c0.016-0.205,0.031-0.408,0.049-0.612
	c0.035-0.398,0.076-0.796,0.117-1.193c0.018-0.157,0.031-0.311,0.047-0.468c0.125-1.113,0.272-2.222,0.447-3.327
	c0.026-0.162,0.056-0.326,0.082-0.491c0.063-0.386,0.127-0.77,0.197-1.156c0.038-0.204,0.076-0.405,0.114-0.607
	c0.068-0.343,0.132-0.69,0.204-1.033c0.045-0.215,0.092-0.429,0.136-0.646c0.072-0.329,0.145-0.664,0.219-0.993
	c0.051-0.219,0.103-0.437,0.154-0.653c0.078-0.328,0.157-0.653,0.241-0.982c0.054-0.215,0.11-0.434,0.166-0.649
	c0.087-0.329,0.176-0.659,0.268-0.988c0.058-0.209,0.117-0.416,0.176-0.626c0.098-0.344,0.201-0.686,0.304-1.03
	c0.058-0.19,0.114-0.381,0.174-0.57c0.12-0.389,0.246-0.775,0.373-1.16c0.049-0.143,0.094-0.286,0.141-0.428
	c0.181-0.535,0.364-1.065,0.556-1.594c0.002-0.002,0.002-0.002,0.002-0.002c0.19-0.524,0.384-1.043,0.586-1.558
	c0.063-0.158,0.125-0.312,0.188-0.469c0.143-0.362,0.288-0.724,0.438-1.081c0.078-0.19,0.161-0.378,0.239-0.567
	c0.138-0.325,0.279-0.65,0.422-0.972c0.087-0.201,0.178-0.399,0.268-0.599l0.007-0.009c0.138-0.307,0.28-0.614,0.422-0.922
	c0.096-0.202,0.192-0.405,0.291-0.606c0.148-0.305,0.295-0.609,0.447-0.912c0.101-0.201,0.201-0.402,0.304-0.602
	c0.157-0.304,0.312-0.605,0.471-0.907c0.105-0.196,0.206-0.39,0.311-0.583c0.169-0.313,0.344-0.628,0.518-0.94
	c0.101-0.175,0.197-0.355,0.297-0.53c0.201-0.352,0.406-0.701,0.614-1.051c0.078-0.134,0.154-0.267,0.234-0.4
	c0.291-0.485,0.588-0.967,0.891-1.444c0.009-0.018,0.023-0.034,0.033-0.053c0.288-0.456,0.586-0.91,0.884-1.36
	c0.096-0.144,0.197-0.287,0.295-0.432c0.216-0.321,0.436-0.642,0.657-0.961c0.122-0.172,0.246-0.342,0.368-0.515
	c0.206-0.288,0.411-0.575,0.621-0.863c0.134-0.178,0.268-0.358,0.403-0.538c0.206-0.275,0.413-0.548,0.624-0.821
	c0.141-0.18,0.281-0.359,0.424-0.542c0.213-0.267,0.424-0.533,0.64-0.799c0.145-0.176,0.291-0.356,0.438-0.533
	c0.219-0.267,0.443-0.53,0.666-0.794c0.145-0.169,0.291-0.341,0.438-0.511c0.239-0.272,0.48-0.545,0.722-0.816
	c0.138-0.153,0.275-0.309,0.413-0.461c0.279-0.305,0.563-0.609,0.847-0.912c0.11-0.116,0.212-0.229,0.322-0.342
	c0.398-0.416,0.8-0.831,1.209-1.238c0.025-0.024,0.049-0.049,0.076-0.072c0.38-0.38,0.767-0.756,1.158-1.128
	c0.129-0.124,0.263-0.246,0.396-0.367l0.005-0.007c0.288-0.269,0.577-0.538,0.87-0.803c0.161-0.146,0.324-0.291,0.487-0.435
	c0.268-0.24,0.539-0.481,0.811-0.716c0.176-0.152,0.356-0.303,0.532-0.453c0.159-0.134,0.315-0.27,0.474-0.403l0.056-0.041
	c2.987-2.485,6.212-4.767,9.668-6.805c2.689-1.585,5.437-2.977,8.227-4.179c3.298-1.421,6.658-2.566,10.053-3.47
	c-0.599-0.038-1.2-0.087-1.801-0.111c-0.166-0.003-0.328-0.014-0.494-0.018c-0.708-0.022-1.416-0.021-2.125-0.022
	c-0.708,0.001-1.416,0-2.125,0.022c-0.166,0.005-0.328,0.015-0.494,0.018c-1.093,0.042-2.185,0.11-3.278,0.202
	c-7.652,0.644-15.286,2.506-22.618,5.667c-2.792,1.204-5.54,2.596-8.227,4.179c-3.456,2.038-6.681,4.32-9.668,6.805l-0.056,0.041
	c-0.159,0.133-0.315,0.269-0.474,0.403c-0.176,0.15-0.356,0.301-0.532,0.453c-0.272,0.236-0.543,0.476-0.811,0.716
	c-0.164,0.144-0.326,0.288-0.487,0.435c-0.293,0.265-0.581,0.534-0.87,0.803l-0.005,0.007c-0.132,0.121-0.265,0.244-0.396,0.367
	c-0.391,0.372-0.778,0.748-1.158,1.128c-0.026,0.023-0.052,0.048-0.076,0.072c-0.408,0.406-0.811,0.821-1.209,1.238
	c-0.11,0.113-0.212,0.227-0.321,0.342c-0.284,0.303-0.567,0.605-0.847,0.912c-0.138,0.153-0.275,0.309-0.413,0.461
	c-0.241,0.271-0.483,0.543-0.722,0.816c-0.148,0.17-0.293,0.342-0.438,0.511c-0.223,0.265-0.447,0.529-0.666,0.794
	c-0.148,0.177-0.293,0.356-0.438,0.533c-0.215,0.265-0.427,0.532-0.64,0.799c-0.143,0.182-0.284,0.362-0.424,0.542
	c-0.21,0.272-0.418,0.547-0.624,0.821c-0.134,0.18-0.268,0.358-0.403,0.538c-0.211,0.287-0.415,0.574-0.621,0.863
	c-0.122,0.173-0.246,0.343-0.368,0.515c-0.221,0.318-0.44,0.64-0.657,0.961c-0.098,0.145-0.199,0.288-0.295,0.432
	c-0.3,0.452-0.596,0.904-0.884,1.36c-0.011,0.018-0.024,0.034-0.033,0.053c-0.304,0.477-0.601,0.959-0.891,1.444
	c-0.08,0.133-0.157,0.265-0.235,0.4c-0.208,0.35-0.413,0.699-0.614,1.051c-0.101,0.175-0.197,0.354-0.297,0.53
	c-0.174,0.312-0.349,0.627-0.518,0.94c-0.105,0.193-0.206,0.388-0.311,0.583c-0.159,0.302-0.315,0.603-0.471,0.907
	c-0.103,0.2-0.204,0.402-0.304,0.602c-0.152,0.303-0.3,0.606-0.447,0.912c-0.098,0.202-0.195,0.405-0.291,0.606
	c-0.142,0.308-0.284,0.616-0.422,0.922l-0.007,0.009c-0.089,0.201-0.181,0.399-0.268,0.599c-0.143,0.321-0.284,0.646-0.422,0.972
	c-0.078,0.19-0.161,0.378-0.239,0.567c-0.15,0.358-0.295,0.72-0.438,1.081c-0.063,0.157-0.125,0.311-0.188,0.469
	c-0.201,0.515-0.396,1.034-0.586,1.556c0,0,0,0.002-0.002,0.005c-0.192,0.53-0.375,1.059-0.556,1.594
	c-0.047,0.142-0.091,0.285-0.141,0.428c-0.127,0.386-0.253,0.771-0.373,1.16c-0.061,0.189-0.117,0.38-0.174,0.57
	c-0.103,0.344-0.206,0.686-0.304,1.03c-0.061,0.209-0.119,0.416-0.176,0.626c-0.091,0.329-0.181,0.659-0.268,0.988
	c-0.056,0.215-0.112,0.434-0.166,0.649c-0.085,0.328-0.164,0.653-0.241,0.982c-0.051,0.216-0.103,0.435-0.154,0.653
	c-0.073,0.329-0.148,0.664-0.219,0.993c-0.045,0.217-0.092,0.431-0.136,0.646c-0.072,0.344-0.136,0.69-0.204,1.033
	c-0.038,0.204-0.076,0.405-0.114,0.607c-0.07,0.386-0.134,0.77-0.197,1.156c-0.026,0.165-0.056,0.327-0.082,0.491
	c-0.174,1.105-0.322,2.215-0.447,3.327c-0.016,0.157-0.029,0.312-0.047,0.468c-0.04,0.397-0.08,0.795-0.117,1.193
	c-0.018,0.204-0.033,0.407-0.049,0.612c-0.026,0.354-0.056,0.706-0.078,1.061c-0.014,0.219-0.026,0.438-0.038,0.659
	c-0.018,0.339-0.035,0.68-0.049,1.018c-0.011,0.228-0.018,0.454-0.026,0.682c-0.009,0.334-0.018,0.669-0.024,1.004
	c-0.005,0.228-0.007,0.458-0.009,0.686c-0.005,0.337-0.005,0.676-0.002,1.012c0.002,0.224,0.002,0.45,0.005,0.673
	c0.007,0.352,0.016,0.702,0.025,1.055c0.007,0.211,0.011,0.419,0.018,0.628c0.016,0.389,0.033,0.779,0.054,1.168
	c0.011,0.173,0.018,0.343,0.026,0.514c0.069,1.123,0.162,2.248,0.284,3.37c0.018,0.167,0.04,0.338,0.061,0.505
	c0.045,0.391,0.089,0.785,0.141,1.176c0.026,0.209,0.058,0.416,0.087,0.626c0.049,0.35,0.101,0.7,0.154,1.053
	c0.035,0.227,0.072,0.45,0.11,0.676c0.056,0.335,0.112,0.668,0.172,1.003c0.04,0.23,0.082,0.46,0.127,0.692
	c0.063,0.328,0.127,0.66,0.195,0.99c0.047,0.231,0.094,0.462,0.145,0.692c0.07,0.333,0.145,0.664,0.219,0.995
	c0.026,0.112,0.054,0.225,0.079,0.338c0.025,0.114,0.05,0.225,0.077,0.339c0.082,0.344,0.169,0.689,0.257,1.032
	c0.054,0.211,0.108,0.421,0.161,0.63c0.101,0.379,0.206,0.756,0.312,1.133c0.049,0.174,0.096,0.351,0.145,0.525
	c0.319,1.102,0.666,2.201,1.041,3.296c0.058,0.17,0.12,0.341,0.181,0.509c0.129,0.376,0.263,0.749,0.4,1.122
	c0.078,0.209,0.159,0.416,0.237,0.627c0.127,0.333,0.255,0.667,0.387,0.999c0.089,0.223,0.178,0.445,0.27,0.667
	c0.129,0.319,0.261,0.638,0.396,0.956c0.098,0.224,0.194,0.451,0.293,0.676c0.138,0.313,0.277,0.628,0.418,0.94
	c0.103,0.224,0.206,0.452,0.311,0.675c0.145,0.313,0.295,0.626,0.447,0.937c0.105,0.221,0.212,0.442,0.322,0.66
	c0.161,0.324,0.324,0.645,0.49,0.969c0.105,0.205,0.21,0.41,0.317,0.613c0.185,0.355,0.378,0.706,0.57,1.058
	c0.094,0.172,0.185,0.342,0.279,0.514c0.291,0.519,0.588,1.04,0.891,1.556l54.524,92.498c1.915,2.464,4.644,4.803,7.995,4.563
	c3.352,0.24,6.08-2.098,7.995-4.563l4.12-6.989L379.495,111.904z"/>
<g>
</g>
<g>
</g>
<g>
</g>
<g>
</g>
<g>
</g>
<g>
</g>
<g>
</g>
<g>
</g>
<g>
</g>
<g>
</g>
<g>
</g>
<g>
</g>
<g>
</g>
<g>
</g>
<g>
</g>
</svg>
